<?xml version="1.0" standalone="no"?><!DOCTYPE svg PUBLIC "-//W3C//DTD SVG 1.1//EN" "http://www.w3.org/Graphics/SVG/1.1/DTD/svg11.dtd"><svg t="1765016967885" class="icon" viewBox="0 0 1024 1024" version="1.1" xmlns="http://www.w3.org/2000/svg" p-id="4644" xmlns:xlink="http://www.w3.org/1999/xlink" width="200" height="200"><path d="M511.257835 0l-55.615413 32.157358v165.267963h101.019009V26.257615L511.257835 0z m116.022018 197.425321h25.186642l106.402055 110.328954v162.581138l-29.235669 31.161541 29.235669 32.890129V715.86055L646.651303 826.339817h-19.37145v130.358018l105.312294-60.885725 221.343706-127.981211V255.934239l-221.334312-127.953028-105.312293-60.904514v130.348624z m-337.35633-69.453504L68.579817 255.934239v511.906055l221.334311 127.971816 95.119266 54.976587V826.339817h-119.497981l-1.888294-166.188624h44.482936V361.74444h-42.594642V197.425321h119.497981V72.97644L289.914128 127.971817z m169.129101 328.826128h150.781651v-127.765138h-150.781651v127.765138z m0 287.36822h150.781651v-127.765137h-150.781651v127.765137z m-3.410202 82.173652v165.286752l55.615413 32.157358 45.403596-26.248221V826.339817H455.642422z" fill="#1296db" p-id="4645"></path></svg>